PathFileType  4	(X/Y/Z) C:\Users\antoi\Documents\MyRepositories\mobilecap\ResultsAnalysis
DataRate	CameraRate	NumFrames	NumMarkers	Units	OrigDataRate	OrigDataStartFrame	OrigNumFrames
100.0	100.0	4	55	mm	100.0	76	601
Frame#	Time	r_knee			r_shank_antsup			r_ankle			r_calc			r_5meta			r_toe			L_knee			L_shank_antsup			L_ankle			L_calc			L_5meta			L_toe			r_mknee			r_mankle			L_mknee			L_mankle			r_sh2			r_sh3			r_sh4			L_sh2			L_sh3			r_thigh1			r_thigh2			r_thigh3			r_thigh4			r_thigh5			L_thigh1			L_thigh2			L_thigh3			L_thigh4			r.ASIS			r.PSIS			L.ASIS			L.PSIS			C7			R_Shoulder			L_Shoulder			R_Sternum			L_Sternum			R_humerus			R_elbow_med			R_elbow_lat			R_forearm			R_wrist_radius			R_wrist_ulna			L_humerus			L_elbow_med			L_elbow_lat			L_forearm			L_wrist_radius			L_wrist_ulna			R_HJC			L_HJC			R_HJC_reg			L_HJC_reg			
		X1	Y1	Z1	X2	Y2	Z2	X3	Y3	Z3	X4	Y4	Z4	X5	Y5	Z5	X6	Y6	Z6	X7	Y7	Z7	X8	Y8	Z8	X9	Y9	Z9	X10	Y10	Z10	X11	Y11	Z11	X12	Y12	Z12	X13	Y13	Z13	X14	Y14	Z14	X15	Y15	Z15	X16	Y16	Z16	X17	Y17	Z17	X18	Y18	Z18	X19	Y19	Z19	X20	Y20	Z20	X21	Y21	Z21	X22	Y22	Z22	X23	Y23	Z23	X24	Y24	Z24	X25	Y25	Z25	X26	Y26	Z26	X27	Y27	Z27	X28	Y28	Z28	X29	Y29	Z29	X30	Y30	Z30	X31	Y31	Z31	X32	Y32	Z32	X33	Y33	Z33	X34	Y34	Z34	X35	Y35	Z35	X36	Y36	Z36	X37	Y37	Z37	X38	Y38	Z38	X39	Y39	Z39	X40	Y40	Z40	X41	Y41	Z41	X42	Y42	Z42	X43	Y43	Z43	X44	Y44	Z44	X45	Y45	Z45	X46	Y46	Z46	X47	Y47	Z47	X48	Y48	Z48	X49	Y49	Z49	X50	Y50	Z50	X51	Y51	Z51	X52	Y52	Z52	X53	Y53	Z53	X54	Y54	Z54	X55	Y55	Z55	

76	0.75000000	-195.96088	547.71171	-437.89162	-169.97617	451.76115	-445.23196	-274.19047	122.63951	-468.11224	-356.43390	74.31726	-516.27542	-166.24336	47.67153	-415.45755	-104.21079	74.05823	-475.46379	-192.86671	548.84401	-777.67960	-198.63565	460.24858	-802.32941	-259.23683	125.61289	-752.76822	-342.23491	74.62806	-701.59718	-148.23533	50.54530	-784.45437	-89.92533	76.35645	-720.49599	-186.32628	534.66260	-572.41237	-239.78204	134.10870	-557.59727	-181.50985	541.51862	-641.47307	-237.91607	130.65613	-656.27644	-199.38670	344.31760	-420.49765	-231.34932	476.07105	-408.03803	-276.74097	369.37021	-401.80536	-288.42683	472.67028	-795.24728	-291.12125	350.37598	-792.41044	-98.12610	867.16112	-418.27277	-104.45503	756.59296	-423.44925	-162.54949	733.66899	-400.05855	-211.33469	867.98817	-415.46039	-210.94515	753.05657	-419.98034	-89.16277	832.13682	-783.20595	-94.35502	691.53669	-772.35236	-198.58635	834.75763	-800.01273	-207.83527	697.89520	-794.90171	-85.21565	1083.89007	-464.05968	-261.32578	1094.31186	-543.70156	-71.38646	1087.86632	-716.05215	-257.26556	1093.00699	-651.81696	-242.92308	1631.09918	-593.27046	-168.73408	1572.16498	-426.00383	-187.85610	1575.10320	-766.53933	-112.47963	1557.89918	-566.10050	-115.01087	1555.34553	-623.59168	-148.35704	1415.87744	-356.73678	-208.86418	1208.70737	-386.99297	-201.70046	1232.63984	-307.18543	-134.97266	1077.18346	-262.12811	-87.18526	991.87922	-256.73263	-130.95286	994.31070	-239.82511	-201.80326	1448.79442	-845.43024	-214.64511	1208.86212	-803.24623	-215.15752	1228.78948	-881.41416	-170.22384	1177.06301	-920.22657	-102.30645	1013.45583	-953.75737	-142.31692	1003.13817	-958.82467	-157.94531	965.85237	-490.44398	-152.48997	974.41544	-697.15556	-140.46746	1003.89453	-500.73761	-134.21624	1001.88539	-667.19407	
77	0.76000000	-195.92118	547.75667	-437.84944	-169.99345	451.69934	-445.26692	-274.18522	122.57910	-468.15987	-356.40239	74.33673	-516.27131	-166.20098	47.70898	-415.44487	-104.20106	74.04685	-475.42365	-192.85532	548.86448	-777.67255	-198.61328	460.27045	-802.39768	-259.23434	125.63053	-752.77401	-342.23057	74.62738	-701.59782	-148.22930	50.55674	-784.44998	-89.90038	76.36042	-720.48926	-186.32319	534.66179	-572.40863	-239.77612	134.12403	-557.59374	-181.50696	541.52592	-641.47303	-237.89412	130.64798	-656.27998	-199.49137	344.19332	-420.39104	-231.32102	476.30841	-407.87976	-276.74113	369.36343	-401.80506	-288.42178	472.70955	-795.29213	-291.10688	350.40364	-792.40728	-98.08964	867.17866	-418.29006	-104.46103	756.59777	-423.45771	-162.56708	733.65113	-400.05441	-211.33021	867.97372	-415.46100	-210.97037	753.02978	-419.97922	-89.15467	832.13649	-783.19725	-94.32495	691.56369	-772.31916	-198.56565	834.76730	-800.01016	-207.81640	697.91045	-794.89685	-85.17181	1083.89569	-464.03195	-261.33381	1094.31024	-543.70166	-71.37401	1087.88894	-716.03787	-257.23354	1092.94171	-651.85001	-242.88396	1631.11399	-593.29469	-168.67812	1572.18233	-425.97262	-187.80107	1575.11942	-766.57560	-112.43514	1557.92823	-566.11052	-114.97915	1555.36531	-623.58482	-148.28816	1415.87781	-356.71078	-208.77260	1208.64778	-386.97351	-201.66166	1232.67492	-307.13213	-134.99220	1077.23289	-262.06720	-87.19731	991.92224	-256.69296	-130.98965	994.34068	-239.76629	-201.73961	1448.79962	-845.41481	-214.62916	1208.83075	-803.29723	-215.11952	1228.80896	-881.43973	-170.19576	1177.07105	-920.23831	-102.27143	1013.48090	-953.80062	-142.29829	1003.15527	-958.82014	-157.89890	965.85120	-490.43436	-152.43181	974.40462	-697.14602	-140.49104	1003.96860	-500.68784	-134.17991	1001.86206	-667.14872	
78	0.77000000	-195.94325	547.76855	-437.87108	-170.02626	451.67325	-445.25719	-274.14903	122.57894	-468.16120	-356.38531	74.31698	-516.23748	-166.16747	47.72108	-415.48092	-104.14441	74.04973	-475.39657	-192.84185	548.87201	-777.66828	-198.60978	460.27828	-802.41474	-259.23158	125.60310	-752.71777	-342.26209	74.62884	-701.61443	-148.22619	50.56050	-784.45006	-89.89203	76.33103	-720.45793	-186.31885	534.66015	-572.40637	-239.77345	134.13054	-557.59676	-181.50652	541.53058	-641.47110	-237.89399	130.65749	-656.28032	-199.53621	344.11187	-420.35887	-231.44851	476.60530	-407.72201	-276.75155	369.36974	-401.79880	-288.42909	472.68698	-795.21729	-291.07573	350.43596	-792.41727	-98.05498	867.16696	-418.30740	-104.43996	756.59922	-423.44102	-162.56998	733.67585	-400.01363	-211.34206	867.93624	-415.45441	-210.96276	753.02890	-419.97217	-89.14676	832.13685	-783.18744	-94.26715	691.57219	-772.32426	-198.54020	834.77046	-800.00715	-207.79437	697.90982	-794.90796	-85.14167	1083.90932	-464.00528	-261.33782	1094.24606	-543.64522	-71.36481	1087.90786	-716.02942	-257.14939	1092.89340	-651.97443	-242.85516	1631.16711	-593.37770	-168.62853	1572.20148	-425.88072	-187.75228	1575.14384	-766.59776	-112.40124	1557.94485	-566.12548	-114.95303	1555.40326	-623.56624	-148.28499	1415.84059	-356.72789	-208.73261	1208.63050	-386.95876	-201.65284	1232.70123	-307.08598	-135.00325	1077.25803	-261.95565	-87.18573	991.95020	-256.62844	-130.98697	994.40944	-239.68268	-201.67493	1448.80125	-845.41357	-214.63950	1208.77516	-803.42219	-215.07914	1228.81475	-881.48880	-170.03062	1177.35216	-920.54319	-102.23441	1013.51423	-953.87765	-142.25794	1003.14867	-958.81437	-157.83600	965.83382	-490.44293	-152.33907	974.39296	-697.15356	-140.48806	1003.93214	-500.72270	-134.05186	1001.85352	-667.19038	
79	0.78000000	-195.96705	547.74848	-437.89557	-170.05176	451.73258	-445.23190	-274.14197	122.60910	-468.14624	-356.36260	74.29506	-516.22403	-166.18805	47.68630	-415.52035	-104.09966	74.06954	-475.39844	-192.84224	548.87391	-777.66682	-198.60728	460.29438	-802.38619	-259.22555	125.61033	-752.71112	-342.28332	74.61515	-701.60900	-148.22722	50.55671	-784.45317	-89.94124	76.23987	-720.33791	-186.31679	534.65834	-572.40748	-239.77299	134.13491	-557.59939	-181.50285	541.52939	-641.47303	-237.91681	130.67245	-656.27538	-199.47691	344.19304	-420.45482	-231.52344	476.58069	-407.75568	-276.80678	369.41469	-401.72986	-288.43572	472.66667	-795.15548	-291.06594	350.44508	-792.42093	-98.04441	867.13398	-418.30764	-104.41963	756.61512	-423.43861	-162.55255	733.72001	-399.99239	-211.34248	867.91200	-415.44391	-210.91079	753.05171	-419.93161	-89.14229	832.13623	-783.18376	-94.29621	691.57668	-772.31899	-198.51629	834.77097	-800.00327	-207.78082	697.90300	-794.90896	-85.13158	1083.92192	-463.98966	-261.32293	1094.21460	-543.62390	-71.35527	1087.91114	-716.03387	-257.12396	1092.91003	-651.99359	-242.83539	1631.19445	-593.42297	-168.61358	1572.25801	-425.86119	-187.71238	1575.15485	-766.61618	-112.37445	1557.95022	-566.13482	-114.92238	1555.44645	-623.54329	-148.33912	1415.86061	-356.78911	-208.73234	1208.68750	-386.95873	-201.66864	1232.73051	-307.06887	-134.99943	1077.27314	-261.86311	-87.18374	991.99351	-256.57235	-130.97076	994.47218	-239.62392	-201.62047	1448.81227	-845.44267	-214.65796	1208.76395	-803.51989	-215.03686	1228.81770	-881.53481	-169.78066	1177.81106	-921.04825	-102.20180	1013.52816	-953.92854	-142.20445	1003.13907	-958.79669	-157.81258	965.83159	-490.44347	-152.31267	974.39797	-697.15373	-140.44687	1003.86783	-500.75064	-133.99615	1001.86369	-667.23188	
